<?xml version="1.0" encoding="UTF-8"?>
<!DOCTYPE svg PUBLIC "-//W3C//DTD SVG 1.1//EN" "http://www.w3.org/Graphics/SVG/1.1/DTD/svg11.dtd">
<svg xmlns="http://www.w3.org/2000/svg" version="1.1" width="1033px" height="119px" style="shape-rendering:geometricPrecision; text-rendering:geometricPrecision; image-rendering:optimizeQuality; fill-rule:evenodd; clip-rule:evenodd" xmlns:xlink="http://www.w3.org/1999/xlink">
<g><path style="opacity:0.934" fill="#fefffe" d="M 87.5,-0.5 C 91.1667,-0.5 94.8333,-0.5 98.5,-0.5C 110.11,6.26262 111.443,14.7626 102.5,25C 96.1667,28.3333 89.8333,28.3333 83.5,25C 76.3299,18.2985 75.6633,10.9652 81.5,3C 83.4319,1.5415 85.4319,0.374833 87.5,-0.5 Z"/></g>
<g><path style="opacity:0.934" fill="#fefffe" d="M 541.5,1.5 C 556.014,2.16778 560.514,9.16778 555,22.5C 548.869,27.1956 542.369,27.6956 535.5,24C 528.619,13.9599 530.619,6.45986 541.5,1.5 Z"/></g>
<g><path style="opacity:0.968" fill="#fefffe" d="M 321.5,8.5 C 330.085,8.18344 338.585,8.51677 347,9.5C 347.667,45.1667 347.667,80.8333 347,116.5C 338.585,117.483 330.085,117.817 321.5,117.5C 321.5,81.1667 321.5,44.8333 321.5,8.5 Z"/></g>
<g><path style="opacity:0.96" fill="#fefffe" d="M -0.5,116.5 C -0.5,82.5 -0.5,48.5 -0.5,14.5C 21.7606,13.345 44.094,13.1784 66.5,14C 67.4788,20.7445 67.8122,27.5778 67.5,34.5C 54.1625,34.3334 40.8292,34.5001 27.5,35C 27,35.5 26.5,36 26,36.5C 25.1913,42.7489 25.358,48.9156 26.5,55C 36.5,55.3333 46.5,55.6667 56.5,56C 57.642,62.0844 57.8087,68.2511 57,74.5C 56.5,75 56,75.5 55.5,76C 45.5895,76.1798 35.7562,76.6798 26,77.5C 25.5001,90.8292 25.3334,104.163 25.5,117.5C 16.7489,117.803 8.08226,117.47 -0.5,116.5 Z"/></g>
<g><path style="opacity:0.951" fill="#fefffe" d="M 456.5,14.5 C 477.742,14.1732 498.909,14.5065 520,15.5C 520.804,20.7513 520.637,25.918 519.5,31C 505.592,31.1759 491.758,31.6759 478,32.5C 477.333,40.5 477.333,48.5 478,56.5C 488.423,57.3211 498.923,57.8211 509.5,58C 510.814,63.1361 510.814,68.3028 509.5,73.5C 498.939,74.1775 488.439,74.8441 478,75.5C 477.824,89.4082 477.324,103.242 476.5,117C 469.586,117.811 462.752,117.645 456,116.5C 455.174,82.4285 455.341,48.4285 456.5,14.5 Z"/></g>
<g><path style="opacity:0.963" fill="#fefffe" d="M 171.5,33.5 C 190.416,33.5836 201.582,42.917 205,61.5C 205.667,79.8333 205.667,98.1667 205,116.5C 196.667,117.833 188.333,117.833 180,116.5C 179.667,100.167 179.333,83.8333 179,67.5C 176.73,60.3958 171.896,56.3958 164.5,55.5C 157.473,56.369 152.64,60.0357 150,66.5C 149.667,83.1667 149.333,99.8333 149,116.5C 140.585,117.483 132.085,117.817 123.5,117.5C 123.333,90.1646 123.5,62.8313 124,35.5C 131.754,34.3526 139.587,34.1859 147.5,35C 149.155,37.5074 149.989,40.3408 150,43.5C 156.036,37.5522 163.203,34.2189 171.5,33.5 Z"/></g>
<g><path style="opacity:0.958" fill="#fefffe" d="M 261.5,118.5 C 256.167,118.5 250.833,118.5 245.5,118.5C 231.955,114.79 223.122,106.123 219,92.5C 214.744,76.6291 216.744,61.6291 225,47.5C 238.643,32.7054 254.477,29.8721 272.5,39C 274.333,40.8333 276.167,42.6667 278,44.5C 278.212,41.2423 278.712,38.0757 279.5,35C 287.167,34.3333 294.833,34.3333 302.5,35C 303,35.5 303.5,36 304,36.5C 304.667,63.1667 304.667,89.8333 304,116.5C 295.585,117.483 287.085,117.817 278.5,117.5C 278.665,114.15 278.498,110.817 278,107.5C 273.72,113.053 268.22,116.719 261.5,118.5 Z M 257.5,56.5 C 270.348,56.6052 277.348,63.1052 278.5,76C 276.554,93.1315 267.554,98.7981 251.5,93C 242.71,84.3428 241.21,74.5095 247,63.5C 249.998,60.2623 253.498,57.9289 257.5,56.5 Z"/></g>
<g><path style="opacity:0.959" fill="#fefffe" d="M 410.5,118.5 C 404.167,118.5 397.833,118.5 391.5,118.5C 370.757,112.409 360.09,98.4088 359.5,76.5C 362.507,43.3391 380.507,29.5058 413.5,35C 429.214,39.3803 438.714,49.547 442,65.5C 442.499,71.1569 442.666,76.8236 442.5,82.5C 426.163,82.3334 409.83,82.5001 393.5,83C 387.273,86.4776 386.94,90.4776 392.5,95C 400.953,99.4118 407.953,97.7452 413.5,90C 422.186,89.1681 430.853,89.3348 439.5,90.5C 438.464,98.7846 434.464,105.618 427.5,111C 422.128,114.393 416.462,116.893 410.5,118.5 Z M 398.5,54.5 C 403.686,54.4617 408.353,55.9617 412.5,59C 414.497,61.4916 415.497,64.325 415.5,67.5C 405.833,67.5 396.167,67.5 386.5,67.5C 387.711,60.6212 391.711,56.2879 398.5,54.5 Z"/></g>
<g><path style="opacity:0.96" fill="#fefffe" d="M 81.5,34.5 C 89.4197,34.185 97.253,34.5183 105,35.5C 105.5,62.8313 105.667,90.1646 105.5,117.5C 96.9149,117.817 88.4149,117.483 80,116.5C 79.3333,89.8333 79.3333,63.1667 80,36.5C 80.7172,35.9558 81.2172,35.2891 81.5,34.5 Z"/></g>
<g><path style="opacity:0.971" fill="#fefffe" d="M 612.5,34.5 C 633.576,31.5977 646.743,40.2643 652,60.5C 652.5,79.4971 652.667,98.4971 652.5,117.5C 645.5,117.5 638.5,117.5 631.5,117.5C 631.93,99.7858 631.43,82.1191 630,64.5C 627.342,56.7411 621.842,52.7411 613.5,52.5C 605.158,52.7411 599.658,56.7411 597,64.5C 595.57,82.1191 595.07,99.7858 595.5,117.5C 588.5,117.5 581.5,117.5 574.5,117.5C 574.5,90.1667 574.5,62.8333 574.5,35.5C 581.5,35.5 588.5,35.5 595.5,35.5C 595.335,38.5184 595.502,41.5184 596,44.5C 600.427,39.2113 605.927,35.8779 612.5,34.5 Z"/></g>
<g><path style="opacity:0.955" fill="#fefffe" d="M 712.5,118.5 C 706.5,118.5 700.5,118.5 694.5,118.5C 675.499,111.224 665.832,97.2239 665.5,76.5C 665.342,58.6345 673.009,45.4678 688.5,37C 703.591,31.6295 717.091,34.1295 729,44.5C 729.218,41.5738 729.718,38.7405 730.5,36C 737.414,35.1888 744.248,35.3555 751,36.5C 751.667,63.1667 751.667,89.8333 751,116.5C 744.248,117.645 737.414,117.811 730.5,117C 729.718,114.26 729.218,111.426 729,108.5C 724.077,112.952 718.577,116.286 712.5,118.5 Z M 703.5,53.5 C 725.086,54.2765 733.252,65.2765 728,86.5C 721.461,99.1248 711.628,102.625 698.5,97C 688.285,88.5852 685.451,78.0852 690,65.5C 692.85,59.5144 697.35,55.5144 703.5,53.5 Z"/></g>
<g><path style="opacity:0.958" fill="#fefffe" d="M 808.5,34.5 C 825.348,31.8427 837.848,37.8427 846,52.5C 846.822,54.7885 847.489,57.1218 848,59.5C 848.5,78.8305 848.667,98.1638 848.5,117.5C 841.5,117.5 834.5,117.5 827.5,117.5C 827.946,99.4444 827.446,81.4444 826,63.5C 818.775,51.6547 809.275,49.488 797.5,57C 795.348,59.4689 793.848,62.3022 793,65.5C 792.819,82.544 792.319,99.544 791.5,116.5C 784.61,117.811 777.777,117.811 771,116.5C 770.333,89.8333 770.333,63.1667 771,36.5C 777.777,35.1889 784.61,35.1889 791.5,36.5C 792.213,38.7759 792.713,41.1093 793,43.5C 797.569,39.3046 802.735,36.3046 808.5,34.5 Z"/></g>
<g><path style="opacity:0.957" fill="#fefffe" d="M 913.5,118.5 C 906.5,118.5 899.5,118.5 892.5,118.5C 878.088,114.846 868.588,105.846 864,91.5C 859.598,74.5871 862.598,59.2538 873,45.5C 885.703,34.7026 900.203,31.5359 916.5,36C 927.489,39.6533 935.322,46.82 940,57.5C 940.495,59.4727 940.662,61.4727 940.5,63.5C 933.159,63.6663 925.826,63.4997 918.5,63C 911.273,51.5914 901.939,49.5914 890.5,57C 885.788,62.6389 883.788,69.1389 884.5,76.5C 883.362,88.4147 888.362,96.248 899.5,100C 908.232,101.135 914.565,97.8015 918.5,90C 925.826,89.5003 933.159,89.3337 940.5,89.5C 939.396,98.7921 935.063,106.292 927.5,112C 922.978,114.665 918.311,116.831 913.5,118.5 Z"/></g>
<g><path style="opacity:0.953" fill="#fefffe" d="M 1032.5,71.5 C 1032.5,73.5 1032.5,75.5 1032.5,77.5C 1031.54,79.2646 1031.21,81.2646 1031.5,83.5C 1014.5,83.3334 997.497,83.5001 980.5,84C 973.903,88.5259 973.903,93.1926 980.5,98C 987.527,101.282 994.527,101.282 1001.5,98C 1003.54,96.292 1005.21,94.292 1006.5,92C 1032.77,86.2225 1036.43,92.5558 1017.5,111C 1012.46,114.357 1007.12,116.857 1001.5,118.5C 994.833,118.5 988.167,118.5 981.5,118.5C 964.631,113.794 954.464,102.794 951,85.5C 947.839,67.6459 953.005,52.8126 966.5,41C 979.916,33.9608 993.916,32.6275 1008.5,37C 1023.04,44.0291 1031.04,55.5291 1032.5,71.5 Z M 990.5,51.5 C 997.915,52.1227 1003.75,55.4561 1008,61.5C 1008.99,63.4473 1009.32,65.4473 1009,67.5C 997.243,68.6541 985.409,68.8207 973.5,68C 973.625,62.7621 975.958,58.4288 980.5,55C 983.776,53.3077 987.109,52.141 990.5,51.5 Z"/></g>
<g><path style="opacity:0.938" fill="#fefffe" d="M 534.5,35.5 C 541.422,35.1878 548.256,35.5212 555,36.5C 555.828,63.4055 555.661,90.2388 554.5,117C 547.586,117.811 540.752,117.645 534,116.5C 533.176,89.4279 533.343,62.4279 534.5,35.5 Z"/></g>
</svg>
