<?xml version="1.0" encoding="UTF-8"?>
<!DOCTYPE svg PUBLIC "-//W3C//DTD SVG 1.1//EN" "http://www.w3.org/Graphics/SVG/1.1/DTD/svg11.dtd">
<svg xmlns="http://www.w3.org/2000/svg" version="1.1" width="211px" height="204px" style="shape-rendering:geometricPrecision; text-rendering:geometricPrecision; image-rendering:optimizeQuality; fill-rule:evenodd; clip-rule:evenodd" xmlns:xlink="http://www.w3.org/1999/xlink">
<g><path style="opacity:0.982" fill="#ff4453" d="M 128.5,-0.5 C 130.833,-0.5 133.167,-0.5 135.5,-0.5C 139.817,4.11573 143.15,9.44906 145.5,15.5C 156.282,40.3994 167.616,65.0661 179.5,89.5C 178.278,93.7251 175.612,96.7251 171.5,98.5C 169.519,93.8721 167.019,89.5387 164,85.5C 160.562,81.5587 156.729,78.2254 152.5,75.5C 142.5,53.5 132.5,31.5 122.5,9.5C 123.986,5.86296 125.986,2.52962 128.5,-0.5 Z"/></g>
<g><path style="opacity:0.978" fill="#ff454e" d="M 122.5,9.5 C 132.5,31.5 142.5,53.5 152.5,75.5C 146.313,72.7172 139.813,71.0506 133,70.5C 126.961,71.0329 121.128,72.3663 115.5,74.5C 110.561,64.9554 105.894,55.2887 101.5,45.5C 107.999,33.164 114.999,21.164 122.5,9.5 Z"/></g>
<g><path style="opacity:0.869" fill="#ff4455" d="M 145.5,15.5 C 157.478,34.7753 168.978,54.4419 180,74.5C 182.134,79.7105 181.968,84.7105 179.5,89.5C 167.616,65.0661 156.282,40.3994 145.5,15.5 Z"/></g>
<g><path style="opacity:0.943" fill="#ff4647" d="M 93.5,27.5 C 94.5,30.1667 95.5,32.8333 96.5,35.5C 86.9371,39.7303 79.6037,46.397 74.5,55.5C 70.4472,47.6739 66.7805,39.6739 63.5,31.5C 69.1104,27.613 75.2771,24.9464 82,23.5C 86.185,24.0277 90.0183,25.3611 93.5,27.5 Z"/></g>
<g><path style="opacity:0.595" fill="#fe464a" d="M 93.5,27.5 C 95.8666,28.8708 97.5333,30.8708 98.5,33.5C 98.1445,34.5223 97.4778,35.189 96.5,35.5C 95.5,32.8333 94.5,30.1667 93.5,27.5 Z"/></g>
<g><path style="opacity:0.966" fill="#ff4741" d="M 63.5,31.5 C 66.7805,39.6739 70.4472,47.6739 74.5,55.5C 66.6104,81.5514 74.9437,100.385 99.5,112C 94.7311,120.714 87.3978,124.048 77.5,122C 74.9746,121.576 72.9746,120.41 71.5,118.5C 60.5,94.5 49.5,70.5 38.5,46.5C 46.6319,41.263 54.9652,36.263 63.5,31.5 Z"/></g>
<g><path style="opacity:0.958" fill="#ff4647" d="M 101.5,45.5 C 105.894,55.2887 110.561,64.9554 115.5,74.5C 105.637,80.0275 98.637,88.0275 94.5,98.5C 90.888,90.9438 87.5547,83.2771 84.5,75.5C 89.6639,65.1675 95.3305,55.1675 101.5,45.5 Z"/></g>
<g><path style="opacity:0.977" fill="#ff483b" d="M 38.5,46.5 C 49.5,70.5 60.5,94.5 71.5,118.5C 57.0325,110.766 42.6991,102.766 28.5,94.5C 23.494,83.1559 18.494,71.8226 13.5,60.5C 21.699,55.5678 30.0323,50.9012 38.5,46.5 Z"/></g>
<g><path style="opacity:0.933" fill="#ff4936" d="M 13.5,60.5 C 18.494,71.8226 23.494,83.1559 28.5,94.5C 18.6656,88.7505 8.99891,82.7505 -0.5,76.5C -0.5,74.1667 -0.5,71.8333 -0.5,69.5C 3.82692,66.0013 8.49358,63.0013 13.5,60.5 Z"/></g>
<g><path style="opacity:0.864" fill="#ff4743" d="M 84.5,75.5 C 87.5547,83.2771 90.888,90.9438 94.5,98.5C 93.2789,99.4646 91.9456,99.298 90.5,98C 83.0192,91.7565 81.0192,84.2565 84.5,75.5 Z"/></g>
<g><path style="opacity:0.979" fill="#ff454d" d="M 164.5,98.5 C 171.559,114.952 178.892,131.285 186.5,147.5C 177.033,153.404 167.367,159.071 157.5,164.5C 151.739,151.979 145.739,139.646 139.5,127.5C 138.186,117.542 134.186,108.876 127.5,101.5C 125.063,94.8315 122.063,88.4982 118.5,82.5C 123.457,79.2166 128.79,78.7166 134.5,81C 144.727,86.6076 154.727,92.4409 164.5,98.5 Z"/></g>
<g><path style="opacity:0.874" fill="#ff4649" d="M 118.5,82.5 C 122.063,88.4982 125.063,94.8315 127.5,101.5C 122.303,97.0705 116.636,93.4038 110.5,90.5C 112.21,86.7899 114.877,84.1232 118.5,82.5 Z"/></g>
<g><path style="opacity:0.967" fill="#ff4453" d="M 164.5,98.5 C 173.634,103.234 182.634,108.234 191.5,113.5C 194.894,121.955 198.561,130.288 202.5,138.5C 197.167,141.5 191.833,144.5 186.5,147.5C 178.892,131.285 171.559,114.952 164.5,98.5 Z"/></g>
<g><path style="opacity:0.939" fill="#ff4646" d="M 116.5,143.5 C 112.051,136.267 108.385,128.601 105.5,120.5C 110.002,115.146 113.502,109.146 116,102.5C 125.513,106.859 129.18,114.193 127,124.5C 123.994,131.185 120.494,137.519 116.5,143.5 Z"/></g>
<g><path style="opacity:0.979" fill="#ff483b" d="M 78.5,131.5 C 84.8956,145.958 91.5623,160.291 98.5,174.5C 93.9444,183.274 89.1111,191.94 84,200.5C 82.8904,202.037 81.3904,202.703 79.5,202.5C 64.7389,170.648 49.7389,138.981 34.5,107.5C 35.5077,105.661 37.0077,104.328 39,103.5C 46.2183,121.217 59.3849,130.551 78.5,131.5 Z"/></g>
<g><path style="opacity:0.94" fill="#ff4837" d="M 34.5,107.5 C 49.7389,138.981 64.7389,170.648 79.5,202.5C 79.5,202.833 79.5,203.167 79.5,203.5C 78.5,203.5 77.5,203.5 76.5,203.5C 74.9087,202.781 73.4087,201.781 72,200.5C 58.586,176.67 44.9193,153.003 31,129.5C 28.3554,124.278 28.0221,118.944 30,113.5C 30.7918,110.894 32.2918,108.894 34.5,107.5 Z"/></g>
<g><path style="opacity:0.922" fill="#ff4356" d="M 191.5,113.5 C 198.002,117.25 204.335,121.25 210.5,125.5C 210.5,128.167 210.5,130.833 210.5,133.5C 207.833,135.167 205.167,136.833 202.5,138.5C 198.561,130.288 194.894,121.955 191.5,113.5 Z"/></g>
<g><path style="opacity:0.969" fill="#ff4741" d="M 105.5,120.5 C 108.385,128.601 112.051,136.267 116.5,143.5C 110.749,154.005 104.749,164.338 98.5,174.5C 91.5623,160.291 84.8956,145.958 78.5,131.5C 88.7517,130.753 97.7517,127.087 105.5,120.5 Z"/></g>
<g><path style="opacity:0.962" fill="#ff4647" d="M 139.5,127.5 C 145.739,139.646 151.739,151.979 157.5,164.5C 149.569,169.632 141.236,173.965 132.5,177.5C 129.326,172.484 126.659,167.151 124.5,161.5C 134.383,152.394 139.383,141.06 139.5,127.5 Z"/></g>
<g><path style="opacity:0.888" fill="#ff4743" d="M 124.5,161.5 C 126.659,167.151 129.326,172.484 132.5,177.5C 123.364,179.772 116.364,176.772 111.5,168.5C 111.833,168.167 112.167,167.833 112.5,167.5C 116.759,165.88 120.759,163.88 124.5,161.5 Z"/></g>
</svg>
