<?xml version="1.0" encoding="UTF-8"?>
<!DOCTYPE svg PUBLIC "-//W3C//DTD SVG 1.1//EN" "http://www.w3.org/Graphics/SVG/1.1/DTD/svg11.dtd">
<svg xmlns="http://www.w3.org/2000/svg" version="1.1" width="568px" height="548px" style="shape-rendering:geometricPrecision; text-rendering:geometricPrecision; image-rendering:optimizeQuality; fill-rule:evenodd; clip-rule:evenodd" xmlns:xlink="http://www.w3.org/1999/xlink">
<g><path style="opacity:0.987" fill="#000000" d="M 350.5,-0.5 C 354.5,-0.5 358.5,-0.5 362.5,-0.5C 366.008,1.19065 369.175,3.52399 372,6.5C 409.919,72.0036 447.586,137.67 485,203.5C 493.235,229.967 485.735,250.633 462.5,265.5C 440.165,212.359 400.165,187.859 342.5,192C 311.692,197.146 287.192,212.312 269,237.5C 263.115,247.274 257.782,257.274 253,267.5C 229.845,255.857 220.512,237.19 225,211.5C 226,208.5 227,205.5 228,202.5C 265.333,137.833 302.667,73.1667 340,8.5C 342.468,4.19869 345.968,1.19869 350.5,-0.5 Z"/></g>
<g><path style="opacity:0.987" fill="#000000" d="M -0.5,204.5 C -0.5,200.167 -0.5,195.833 -0.5,191.5C 1.18881,187.005 4.18881,183.505 8.5,181C 70.9968,145.253 133.33,109.253 195.5,73C 216.218,62.2454 235.885,63.912 254.5,78C 258.89,82.1222 262.557,86.7888 265.5,92C 209.275,115.605 185.108,157.772 193,218.5C 202.78,259.426 227.614,286.426 267.5,299.5C 261.927,314.238 251.594,324.071 236.5,329C 226.405,331.21 216.405,330.877 206.5,328C 140.004,290.253 73.6704,252.253 7.5,214C 4.21655,211.228 1.54988,208.061 -0.5,204.5 Z"/></g>
<g><path style="opacity:0.987" fill="#000000" d="M 567.5,342.5 C 567.5,346.833 567.5,351.167 567.5,355.5C 565.811,359.995 562.811,363.495 558.5,366C 496.003,401.747 433.67,437.747 371.5,474C 350.782,484.755 331.115,483.088 312.5,469C 308.11,464.878 304.443,460.211 301.5,455C 357.725,431.395 381.892,389.228 374,328.5C 364.22,287.574 339.386,260.574 299.5,247.5C 305.073,232.762 315.406,222.929 330.5,218C 340.595,215.79 350.595,216.123 360.5,219C 426.996,256.747 493.33,294.747 559.5,333C 562.783,335.772 565.45,338.939 567.5,342.5 Z"/></g>
<g><path style="opacity:0.987" fill="#000000" d="M 216.5,547.5 C 212.5,547.5 208.5,547.5 204.5,547.5C 200.992,545.809 197.825,543.476 195,540.5C 157.081,474.996 119.414,409.33 82,343.5C 73.7648,317.033 81.2648,296.367 104.5,281.5C 126.835,334.641 166.835,359.141 224.5,355C 255.308,349.854 279.808,334.688 298,309.5C 303.885,299.726 309.218,289.726 314,279.5C 337.155,291.143 346.488,309.81 342,335.5C 341,338.5 340,341.5 339,344.5C 301.667,409.167 264.333,473.833 227,538.5C 224.532,542.801 221.032,545.801 216.5,547.5 Z"/></g>
</svg>
