<?xml version="1.0" encoding="UTF-8"?>
<!DOCTYPE svg PUBLIC "-//W3C//DTD SVG 1.1//EN" "http://www.w3.org/Graphics/SVG/1.1/DTD/svg11.dtd">
<svg xmlns="http://www.w3.org/2000/svg" version="1.1" width="211px" height="204px" style="shape-rendering:geometricPrecision; text-rendering:geometricPrecision; image-rendering:optimizeQuality; fill-rule:evenodd; clip-rule:evenodd" xmlns:xlink="http://www.w3.org/1999/xlink">
<g><path style="opacity:0.964" fill="#fefffe" d="M 128.5,-0.5 C 130.833,-0.5 133.167,-0.5 135.5,-0.5C 138.545,3.21997 141.378,7.21997 144,11.5C 155.747,32.6628 167.747,53.6628 180,74.5C 183.403,84.7947 180.57,92.7947 171.5,98.5C 160.546,74.8569 142.546,66.6902 117.5,74C 106.19,79.4738 98.1902,87.9738 93.5,99.5C 83.9557,94.0352 80.7891,86.0352 84,75.5C 98.0882,49.6463 112.921,24.313 128.5,-0.5 Z"/></g>
<g><path style="opacity:0.963" fill="#fefffe" d="M -0.5,76.5 C -0.5,74.1667 -0.5,71.8333 -0.5,69.5C 24.313,53.9215 49.6463,39.0882 75.5,25C 85.3253,22.2174 92.992,25.0507 98.5,33.5C 71.1691,47.9953 64.6691,68.9953 79,96.5C 85.002,102.844 91.8354,108.011 99.5,112C 93.8279,121.99 85.4946,124.99 74.5,121C 49.1422,106.659 24.1422,91.8256 -0.5,76.5 Z"/></g>
<g><path style="opacity:0.964" fill="#fefffe" d="M 210.5,125.5 C 210.5,128.167 210.5,130.833 210.5,133.5C 185.647,148.172 160.647,162.672 135.5,177C 125.234,180.274 117.234,177.441 111.5,168.5C 134.167,158.165 142.667,140.832 137,116.5C 131.583,104.249 122.75,95.5825 110.5,90.5C 115.965,80.9557 123.965,77.7891 134.5,81C 160.354,95.0882 185.687,109.921 210.5,125.5 Z"/></g>
<g><path style="opacity:0.964" fill="#fefffe" d="M 79.5,203.5 C 78.5,203.5 77.5,203.5 76.5,203.5C 74.9087,202.781 73.4087,201.781 72,200.5C 58.586,176.67 44.9193,153.003 31,129.5C 26.6366,118.639 29.3033,109.972 39,103.5C 50.0049,127.586 68.1716,135.752 93.5,128C 104.576,122.7 112.076,114.2 116,102.5C 126.567,107.859 129.901,116.192 126,127.5C 112.667,150.833 99.3333,174.167 86,197.5C 84.5639,200.442 82.3972,202.442 79.5,203.5 Z"/></g>
</svg>
